<svg width="700" height="664" viewBox="0 0 700 664" fill="none" xmlns="http://www.w3.org/2000/svg">
<path d="M270.09 164.288L270.763 164.232C271.164 164.212 271.566 164.202 271.968 164.204C294.84 164.204 345.534 195.732 360.873 255.993C370.801 294.998 372.079 347.537 356.412 377.014C369.973 397.836 408.545 421.553 447.711 432.575C458.406 435.586 469.35 437.108 480.239 437.108C519.205 437.108 545.844 418.047 550.333 410.12C551.555 407.175 560.26 385.581 564.366 359.47C570.005 323.531 571.272 288.393 568.127 255.043C553.661 101.66 447.906 11.0777 350.923 0.872217C345.37 0.291985 339.79 0.000852421 334.207 0C249.529 0 157.297 67.6662 135.119 218.204C159.286 202.871 185.83 189.604 214.285 178.632C243.013 167.566 268.996 164.416 270.09 164.288Z" fill="white"/>
<path d="M199.143 548.599L198.76 548.043C186.682 529.149 187.882 468.288 233.176 424.122C261.421 396.583 306.809 368.7 340.22 367.478C351.47 345.322 352.72 300.061 342.687 260.628C328.87 206.345 284.254 182.979 271.976 182.979H271.909C268.698 183.401 245.671 186.662 221.049 196.151C187.104 209.229 156.038 225.706 128.727 245.112C3.12788 334.333 -22.4497 471.205 17.2056 560.298C45.5776 624.059 112.849 663.664 192.771 663.664C230.832 663.664 271.304 655.214 313.331 638.526C287.97 625.259 263.198 608.909 239.471 589.748C215.515 570.404 199.799 549.482 199.143 548.599Z" fill="white"/>
<path d="M697.598 440.782C690.726 397.96 665.915 335.4 588.232 274.017C589.427 302.616 587.649 332.25 582.916 362.383C578.138 392.799 567.871 416.871 567.443 417.877L567.149 418.488C559.021 434.16 524.294 455.871 480.239 455.877C467.628 455.877 454.972 454.121 442.622 450.643C403.889 439.749 357.756 414.588 340.045 386.277C315.029 387.627 275.346 409.221 246.279 437.566C205.985 476.854 208.168 527.098 214.413 537.665C216.346 540.187 230.696 558.531 251.262 575.142C279.568 598.003 309.362 616.67 339.817 630.614C384.028 650.864 429.094 661.131 473.766 661.131C554.071 661.136 626.893 626.914 668.548 569.592C694.809 533.459 705.131 487.715 697.598 440.782Z" fill="white"/>
</svg>
